<?xml version="1.0" encoding="iso-8859-1"?>
<!-- Generator: Adobe Illustrator 19.0.0, SVG Export Plug-In . SVG Version: 6.00 Build 0)  -->
<svg version="1.1" id="Layer_1" xmlns="http://www.w3.org/2000/svg" xmlns:xlink="http://www.w3.org/1999/xlink" x="0px" y="0px"
	 viewBox="0 0 346.692 346.692" style="enable-background:new 0 0 346.692 346.692;" xml:space="preserve">
<g id="XMLID_854_">
	<g id="XMLID_855_">
		<g id="XMLID_856_">
			<path id="XMLID_857_" style="fill:#2B7B57;" d="M289.693,222.066c-7.806,0-14.135-6.328-14.135-14.135v-90.306
				c0-21.823-17.754-39.577-39.577-39.577h-86.848c-7.806,0-14.135-6.328-14.135-14.135s6.328-14.135,14.135-14.135h86.848
				c37.411,0,67.847,30.436,67.847,67.847v90.306C303.827,215.738,297.499,222.066,289.693,222.066z"/>
		</g>
		<rect id="XMLID_858_" x="96.139" y="22.172" style="fill:#2B7B57;" width="59.11" height="50.134"/>
		<g id="XMLID_861_">
			<path id="XMLID_860_" style="fill:#49B86E;" d="M160.782,31.781H90.605c-8.776,0-15.89-7.114-15.89-15.89l0,0
				C74.715,7.114,81.83,0,90.605,0h70.177c8.776,0,15.89,7.114,15.89,15.89l0,0C176.672,24.666,169.558,31.781,160.782,31.781z"/>
		</g>
		<g id="XMLID_864_">
			<path id="XMLID_863_" style="fill:#49B86E;" d="M180.096,49.779H85.952c-23.796,0-43.087,19.291-43.087,43.087v202.412
				c0,28.395,23.019,51.414,51.414,51.414h158.135c28.395,0,51.414-23.019,51.414-51.414V194.041c0-5.395-2.143-10.57-5.958-14.385
				L195.625,55.737C191.81,51.922,185.491,49.779,180.096,49.779z"/>
		</g>
	</g>
	<g id="XMLID_865_">
		<g id="XMLID_868_">
			<g id="XMLID_867_">
				<path id="XMLID_35_" style="fill:#2B7B57;" d="M226.927,253.226c-17.416,17.416-51.909,11.158-51.909,11.158
					s-6.258-34.494,11.158-51.909c11.904-11.904,31.788-12.748,43.18-12.09c5.214,0.301,9.359,4.447,9.661,9.661
					C239.675,221.439,238.831,241.322,226.927,253.226z"/>
				<path id="XMLID_34_" style="fill:#2B7B57;" d="M108.415,253.226c17.416,17.416,51.909,11.158,51.909,11.158
					s6.257-34.494-11.158-51.909c-11.904-11.904-31.788-12.748-43.18-12.09c-5.214,0.301-9.359,4.447-9.661,9.661
					C95.667,221.439,96.511,241.322,108.415,253.226z"/>
			</g>
		</g>
		<g id="XMLID_869_">
			<path id="XMLID_870_" style="fill:#2B7B57;" d="M167.671,303.951L167.671,303.951c-5.513,0-9.983-4.469-9.983-9.983V171.734
				c0-5.513,4.469-9.983,9.983-9.983l0,0c5.513,0,9.983,4.469,9.983,9.983v122.234C177.654,299.481,173.185,303.951,167.671,303.951
				z"/>
		</g>
		<path id="XMLID_6_" style="fill:#2B7B57;" d="M201.21,166.694c0,28.667-33.539,51.906-33.539,51.906s-33.539-23.239-33.539-51.906
			c0-20.461,17.087-38.157,26.869-46.612c3.83-3.31,9.512-3.31,13.341,0C184.124,128.537,201.21,146.233,201.21,166.694z"/>
	</g>
</g>
<g>
</g>
<g>
</g>
<g>
</g>
<g>
</g>
<g>
</g>
<g>
</g>
<g>
</g>
<g>
</g>
<g>
</g>
<g>
</g>
<g>
</g>
<g>
</g>
<g>
</g>
<g>
</g>
<g>
</g>
</svg>
