<?xml version="1.0" encoding="iso-8859-1"?>
<!-- Generator: Adobe Illustrator 19.0.0, SVG Export Plug-In . SVG Version: 6.00 Build 0)  -->
<svg version="1.1" id="Layer_1" xmlns="http://www.w3.org/2000/svg" xmlns:xlink="http://www.w3.org/1999/xlink" x="0px" y="0px"
	 viewBox="0 0 511.995 511.995" style="enable-background:new 0 0 511.995 511.995;" xml:space="preserve">
<g>
	<g>
		<g>
			<path d="M63.997,85.328H21.331c-5.888,0-10.667,4.779-10.667,10.667v405.333c0,5.888,4.779,10.667,10.667,10.667h42.667
				c5.888,0,10.667-4.779,10.667-10.667v-32h-32c-5.888,0-10.667-4.779-10.667-10.667s4.779-10.667,10.667-10.667h32v-42.667h-32
				c-5.888,0-10.667-4.779-10.667-10.667s4.779-10.667,10.667-10.667h32v-42.667h-32c-5.888,0-10.667-4.779-10.667-10.667
				s4.779-10.667,10.667-10.667h32v-42.667h-32c-5.888,0-10.667-4.779-10.667-10.667s4.779-10.667,10.667-10.667h32v-42.667h-32
				c-5.888,0-10.667-4.779-10.667-10.667s4.779-10.667,10.667-10.667h32v-42.667h-32c-5.888,0-10.667-4.779-10.667-10.667
				s4.779-10.667,10.667-10.667h32v-32C74.664,90.107,69.885,85.328,63.997,85.328z"/>
			<path d="M490.664,85.328h-42.667c-5.888,0-10.667,4.779-10.667,10.667v32h32c5.888,0,10.667,4.779,10.667,10.667
				s-4.779,10.667-10.667,10.667h-32v42.667h32c5.888,0,10.667,4.779,10.667,10.667s-4.779,10.667-10.667,10.667h-32v42.667h32
				c5.888,0,10.667,4.779,10.667,10.667s-4.779,10.667-10.667,10.667h-32v42.667h32c5.888,0,10.667,4.779,10.667,10.667
				s-4.779,10.667-10.667,10.667h-32v42.667h32c5.888,0,10.667,4.779,10.667,10.667s-4.779,10.667-10.667,10.667h-32v42.667h32
				c5.888,0,10.667,4.779,10.667,10.667s-4.779,10.667-10.667,10.667h-32v32c0,5.888,4.779,10.667,10.667,10.667h42.667
				c5.888,0,10.667-4.779,10.667-10.667V95.995C501.331,90.107,496.552,85.328,490.664,85.328z"/>
			<path d="M408.253,43.067L258.92,0.4c-1.92-0.533-3.947-0.533-5.845,0L103.741,43.067c-4.587,1.323-7.744,5.504-7.744,10.261v448
				c0,5.888,4.779,10.667,10.667,10.667h74.667v-74.667c0-5.888,4.779-10.667,10.667-10.667h128c5.888,0,10.667,4.779,10.667,10.667
				v74.667h74.667c5.888,0,10.667-4.779,10.667-10.667v-448C415.997,48.571,412.84,44.389,408.253,43.067z M202.664,394.661
				c0,5.888-4.779,10.667-10.667,10.667h-42.667c-5.888,0-10.667-4.779-10.667-10.667v-42.667c0-5.888,4.779-10.667,10.667-10.667
				h42.667c5.888,0,10.667,4.779,10.667,10.667V394.661z M202.664,309.328c0,5.888-4.779,10.667-10.667,10.667h-42.667
				c-5.888,0-10.667-4.779-10.667-10.667v-42.667c0-5.888,4.779-10.667,10.667-10.667h42.667c5.888,0,10.667,4.779,10.667,10.667
				V309.328z M202.664,223.995c0,5.888-4.779,10.667-10.667,10.667h-42.667c-5.888,0-10.667-4.779-10.667-10.667v-42.667
				c0-5.888,4.779-10.667,10.667-10.667h42.667c5.888,0,10.667,4.779,10.667,10.667V223.995z M202.664,138.661
				c0,5.888-4.779,10.667-10.667,10.667h-42.667c-5.888,0-10.667-4.779-10.667-10.667V95.995c0-5.888,4.779-10.667,10.667-10.667
				h42.667c5.888,0,10.667,4.779,10.667,10.667V138.661z M287.997,394.661c0,5.888-4.779,10.667-10.667,10.667h-42.667
				c-5.888,0-10.667-4.779-10.667-10.667v-42.667c0-5.888,4.779-10.667,10.667-10.667h42.667c5.888,0,10.667,4.779,10.667,10.667
				V394.661z M287.997,309.328c0,5.888-4.779,10.667-10.667,10.667h-42.667c-5.888,0-10.667-4.779-10.667-10.667v-42.667
				c0-5.888,4.779-10.667,10.667-10.667h42.667c5.888,0,10.667,4.779,10.667,10.667V309.328z M287.997,223.995
				c0,5.888-4.779,10.667-10.667,10.667h-42.667c-5.888,0-10.667-4.779-10.667-10.667v-42.667c0-5.888,4.779-10.667,10.667-10.667
				h42.667c5.888,0,10.667,4.779,10.667,10.667V223.995z M287.997,138.661c0,5.888-4.779,10.667-10.667,10.667h-42.667
				c-5.888,0-10.667-4.779-10.667-10.667V95.995c0-5.888,4.779-10.667,10.667-10.667h42.667c5.888,0,10.667,4.779,10.667,10.667
				V138.661z M373.331,394.661c0,5.888-4.779,10.667-10.667,10.667h-42.667c-5.888,0-10.667-4.779-10.667-10.667v-42.667
				c0-5.888,4.779-10.667,10.667-10.667h42.667c5.888,0,10.667,4.779,10.667,10.667V394.661z M373.331,309.328
				c0,5.888-4.779,10.667-10.667,10.667h-42.667c-5.888,0-10.667-4.779-10.667-10.667v-42.667c0-5.888,4.779-10.667,10.667-10.667
				h42.667c5.888,0,10.667,4.779,10.667,10.667V309.328z M373.331,223.995c0,5.888-4.779,10.667-10.667,10.667h-42.667
				c-5.888,0-10.667-4.779-10.667-10.667v-42.667c0-5.888,4.779-10.667,10.667-10.667h42.667c5.888,0,10.667,4.779,10.667,10.667
				V223.995z M373.331,138.661c0,5.888-4.779,10.667-10.667,10.667h-42.667c-5.888,0-10.667-4.779-10.667-10.667V95.995
				c0-5.888,4.779-10.667,10.667-10.667h42.667c5.888,0,10.667,4.779,10.667,10.667V138.661z"/>
		</g>
	</g>
</g>
<g>
</g>
<g>
</g>
<g>
</g>
<g>
</g>
<g>
</g>
<g>
</g>
<g>
</g>
<g>
</g>
<g>
</g>
<g>
</g>
<g>
</g>
<g>
</g>
<g>
</g>
<g>
</g>
<g>
</g>
</svg>
